<svg width="310" height="85" fill="none" xmlns="http://www.w3.org/2000/svg"><path fill-rule="evenodd" clip-rule="evenodd" d="M129.178.743c-.443.43-.804.475-1.23.155-.832-.624-4.521 1.02-5.112 2.28-.337.716-.375.534-.153-.722l.296-1.68-2.111.333c-3.088.49-3.983.543-4.514.266-.685-.357-3.764-.06-4.417.425-.364.271-.629.22-.768-.149-.17-.451-.525-.458-1.798-.034-1.08.36-1.868.392-2.473.099-.678-.328-1.121-.22-1.868.455-.815.737-1.324.833-3.023.574-1.123-.172-2.26-.248-2.525-.168-.265.08-1.674.205-3.132.278-4.212.213-4.336.23-4.336.58 0 .183-.684.242-1.52.132-1.357-.18-1.49-.103-1.249.728.18.624.046.93-.409.93a.668.668 0 01-.677-.653c0-.435-.482-.653-1.446-.653-.835 0-1.445.23-1.445.544 0 .336-.747.567-1.952.603-2.221.066-2.924.456-1.89 1.047.48.274.516.407.107.412-.33.003-.602.3-.602.66 0 .359-.325.653-.723.653-.397 0-.722-.294-.722-.653 0-.36.216-.654.481-.654s.482-.196.482-.435c0-.657-1.305-.522-1.597.164-.155.365-.705.521-1.405.4-1.063-.183-1.135-.082-.952 1.331.188 1.454 1.38 2.472 1.988 1.697.154-.195.876-.39 1.605-.432a105.09 105.09 0 001.927-.125c.332-.028 1.09.085 1.687.25.81.224 1.084.124 1.084-.393 0-.564.23-.614 1.236-.269 1.86.64 3.582.53 3.582-.228 0-.406.455-.653 1.205-.653.704 0 1.205.25 1.205.601 0 .825 3.812.877 4.16.058.138-.327.831-.584 1.539-.572 2.452.043 2.974-.09 2.974-.76 0-.37.271-.64.602-.6.332.038 1.098.047 1.704.018.943-.044 1.027-.175.591-.912-.416-.703-.375-.815.224-.607.404.14.734.527.734.86 0 .334.302.607.671.607.369 0 .795.291.946.647.403.949 6.214.697 7.538-.327 1.018-.788 2.177-1.037 1.721-.37-.145.213.281.48.947.596.665.115 1.328.036 1.473-.175.144-.212.464-.272.711-.134.246.137.448.043.448-.21 0-.254.447-.462.993-.462.545 0 .858.196.694.435-.183.268.501.41 1.778.37 1.385-.043 1.644-.124.778-.244-.926-.127-1.218-.37-1.017-.842.155-.364.414-.5.576-.3.456.562 2.372 1.452 3.128 1.452.373 0 1.677-.852 2.898-1.894 1.519-1.297 2.219-1.67 2.219-1.182 0 .39-.655 1.06-1.455 1.487-1.636.874-1.498 1.589.307 1.589.77 0 1.084-.177.869-.49-.24-.352-.092-.368.522-.057 1.085.548 2.648.199 2.648-.593 0-.33.217-.602.482-.602s.481.261.481.58c0 .912 5.676.807 5.948-.108.169-.569.214-.556.261.072.064.878 1.042 1.003 1.887.24.438-.396.578-.398.578-.01 0 .57 8.462.546 9.475-.027.309-.174.672-.07.807.23.188.418.36.398.732-.085.267-.348.381-.786.252-.975-.128-.188.103-.226.514-.083.412.143.748.49.748.773 0 .561.92.689 4.578.637 1.325-.02 4.143.01 6.264.064 6.753.174 7.17.153 7.36-.36.129-.35.406-.306.904.145.907.82 3.891.836 6.016.034 1.404-.53 1.759-.53 2.56 0 1.139.752 2.132.821 1.325.092-.786-.71-.726-1.219.145-1.219.398 0 .723.294.723.653 0 .36.379.67.843.689.464.02 1.494.082 2.289.138.795.057 1.605-.106 1.8-.362.236-.31.356-.284.361.08.004.3.495.54 1.091.537.754-.004.894-.115.46-.365-.503-.288-.486-.463.086-.892.58-.435.809-.37 1.235.349.313.528.813.782 1.244.632.397-.137.99-.051 1.318.192.971.719 2.559.787 3.413.146.518-.388.797-.426.797-.108 0 .518 1.557.678 2.073.212.693-.627 4.149-.586 4.545.054.419.677 2.483.864 5.566.505 1.004-.117 2.467-.046 3.253.157.785.204 1.428.213 1.428.02s.542-.35 1.205-.35c.662 0 1.204.246 1.204.547 0 .654 1.815 1.173 2.034.58.083-.226.961-.577 1.95-.779 1.614-.328 1.798-.276 1.798.508 0 .773.208.838 1.807.568.994-.168 1.639-.152 1.434.035-.54.492 2.667 1.396 3.342.942.327-.22.689-.186.872.08.171.252 1.13.457 2.13.457 1.001 0 1.976.141 2.166.314.54.488 5.283.498 5.958.013.432-.311.602-.228.602.295 0 .582.458.722 2.289.699 1.258-.016 3.017.097 3.908.252 1.047.183 1.746.097 1.977-.242.276-.402.516-.388 1.032.057.976.846 3.172 1.65 3.555 1.305.599-.542 2.626-.349 2.891.276.205.482.408.502.956.091.695-.521 1.909-.23 1.505.36-.188.274 1.172.335 2.968.132.331-.038.62-.411.64-.83.031-.61.095-.631.319-.11.155.36.604.87 1 1.132.395.263.576.686.402.94-.195.285.035.378.604.243.506-.12 1.707.121 2.671.534.963.413 2.827.752 4.141.752s2.39.17 2.39.377.325.377.722.377c.398 0 .723-.217.723-.482s.325-.37.723-.231c.397.137.723.06.723-.171 0-.693 1.319-.477 1.635.267.432 1.018.401 1.053-.947 1.053-1.177 0-1.198.037-.4.758.598.54.896.604 1.037.222.134-.365.705-.187 1.782.556 1.002.691 1.892.986 2.42.803.493-.171 1.004-.041 1.251.319.23.334.804.608 1.277.608.473 0 .886.245.919.544.033.3.087.709.121.91.168 1.02 4.397 1.832 4.397.843 0-.293.337-.096.75.436.413.533.632 1.142.487 1.354-.351.514.624 1.169 2.27 1.524.797.173 1.869.982 2.65 2.003.721.943 1.578 1.721 1.904 1.73.327.01.742.55.922 1.2.181.65.728 1.57 1.216 2.044.603.585.775 1.149.535 1.757-.194.492-.306 1.666-.248 2.61.058.943-.218 2.16-.613 2.706-.395.545-.718 1.291-.718 1.66 0 .367-.218.618-.483.559-.266-.06-.757.38-1.092.98-.336.598-1.095 1.281-1.686 1.518-.592.236-1.076.765-1.076 1.175 0 .411-.306.903-.681 1.095-.375.191-.754.936-.843 1.654-.118.952-.426 1.319-1.133 1.35-1.273.06-3.551 1.154-5.041 2.423-.657.56-1.25.973-1.32.92-.357-.273-4.833 1.545-5.792 2.352-.335.282-.609.746-.609 1.03 0 .296-.397.424-.927.299-.509-.12-1.599.15-2.421.602-.822.452-1.807.821-2.188.821-.382 0-1.497.637-2.477 1.415-.98.778-2.181 1.353-2.667 1.278-.623-.095-.885.133-.885.772 0 .764-.201.86-1.283.615-1.063-.24-1.232-.167-.979.427.203.48.053.719-.454.719-.477 0-.657-.243-.482-.654.188-.444-.026-.653-.671-.653-.522 0-.949.164-.949.363 0 .2-.271.396-.602.437-5.296.653-7.965 1.574-8.163 2.819-.134.845-.219.87-.851.256-.717-.697-.741-.694-4.921.458a28.51 28.51 0 01-3.574.697c-.992.114-2.054.396-2.359.624-.305.229-1.841.545-3.414.702-1.586.158-3.872.774-5.135 1.382-1.828.88-2.415.993-2.981.568-.515-.386-.964-.403-1.667-.063-.53.256-1.703.466-2.607.466-.904 0-2.317.303-3.139.673-.92.415-3.38.756-6.404.888-2.7.117-5.284.395-5.742.617-.457.22-2.325.434-4.15.473-1.825.039-4.191.333-5.257.653-1.066.32-3.343.618-5.059.661-2.185.056-3.46.318-4.253.875-.983.692-1.223.714-1.823.172-.503-.455-1.01-.516-1.864-.222-.645.221-1.992.387-2.995.368-1.003-.018-2.04.009-2.305.06-.265.053-1.164.062-1.999.021-.835-.04-1.66.136-1.835.392-.175.255-.821.465-1.436.465-.614 0-1.382.288-1.705.64-.486.53-.7.542-1.221.071-.782-.707-6.303-.53-7.322.234-.547.41-.783.398-1.093-.055-.295-.433-1.747-.56-5.75-.504-5.853.081-7.747.489-7.769 1.671-.014.716-.053.713-.538-.041-.424-.659-.605-.7-.949-.218-.334.468-.484.406-.697-.292-.184-.604-.725-.92-1.686-.987-.779-.054-1.416.076-1.416.288 0 .212-.65.316-1.445.233-.795-.084-1.446.025-1.446.243 0 .564-1.476.78-2.931.427-.936-.227-1.385-.098-1.811.518-.312.451-.933.82-1.381.82-.634 0-.687-.116-.237-.523 1.225-1.107.558-1.436-2.803-1.381-1.86.03-3.494-.11-3.632-.31-.366-.536-2.545.476-2.787 1.295-.167.565-.218.546-.263-.1-.05-.714-.456-.787-3.79-.682-2.054.064-4.215.27-4.802.457-.628.2-1.193.155-1.374-.109-.168-.246-.637-.334-1.042-.193-.404.14-.978.084-1.276-.125-1.563-1.098-3.629-.71-4.28.8-.223.52-.288.495-.319-.116-.027-.544-.424-.763-1.363-.75-.729.01-1.86-.037-2.515-.103-1.311-.132-2.033 1.251-.964 1.848.325.181.442.548.26.814-.478.699-1.238.595-1.238-.169 0-.36-.225-.653-.499-.653-.33 0-.315-.31.044-.916.522-.882.453-.91-1.911-.762-1.841.116-2.453.005-2.453-.444 0-.481-.14-.492-.722-.055-.439.328-.723.363-.723.088 0-.266-1.249-.456-3.012-.459-1.656-.003-5.432-.07-8.39-.15-2.959-.08-5.279.003-5.156.183.3.436-1.23-.087-2.643-.905-.82-.475-1.35-.532-1.927-.206-.444.25-1.223.298-1.76.108-1.42-.5-5.032-.464-7.174.074-1.412.354-1.962.341-2.23-.051-.203-.297-1.577-.548-3.186-.582-2.345-.05-3.015.108-3.913.92-1.35 1.219-2.278 1.3-1.468.129.682-.988.157-1.732-.685-.97-.83.75-1.566.631-.86-.139.331-.359.52-.663.421-.675-.098-.012-1.55-.13-3.225-.264-2.732-.217-3.174-.137-4.285.784l-1.237 1.026.318-1.197c.346-1.305.378-1.29-2.953-1.417-1.127-.044-2.048.1-2.048.319s-.34.09-.757-.287c-.417-.376-1.14-.684-1.607-.684-.467 0-.987-.125-1.157-.278-.169-.153-1.127-.328-2.127-.389-4.623-.28-7.573-.69-8.164-1.133-.477-.358-.845-.333-1.419.098-.656.492-.87.463-1.396-.188-.468-.577-.686-.627-.875-.2-.199.444-.344.45-.674.03-.232-.295-.925-.448-1.541-.341-.616.107-2.333-.19-3.815-.66-1.482-.472-3.082-.746-3.555-.61-.527.151-.863.025-.868-.327-.005-.422-.133-.402-.485.08-.41.559-.6.514-1.318-.307-.462-.528-2.086-1.388-3.61-1.912-1.524-.522-2.771-1.08-2.771-1.238 0-.158-.759-.208-1.687-.11-1.55.164-1.686.086-1.686-.969 0-.932-.277-1.197-1.482-1.415-1.046-.189-1.85-.794-2.732-2.057-.688-.984-1.2-1.856-1.136-1.938.063-.082-.2-.376-.584-.653-.384-.278-.833-1.63-1-3.003-.264-2.197-.184-2.564.667-3.044.532-.3.967-.988.967-1.53 0-.54.206-.983.459-.983.252 0 .82-.686 1.26-1.524.44-.838 1.1-1.524 1.468-1.524.367 0 .668-.247.668-.548 0-.302.433-.794.963-1.093.53-.3.964-.911.964-1.36 0-.466.439-.92 1.023-1.058.823-.195.963-.46.714-1.358-.303-1.088.317-1.55.913-.68.164.24.479.436.7.436.599 0 1.042-1.31.639-1.89-.193-.277-.289-.847-.212-1.267.076-.419-.105-.762-.402-.762-.297 0-.41.19-.252.423.16.232-.254.546-.918.696-.664.15-1.338.647-1.498 1.102-.16.455-.492.827-.74.827-.247 0-.449.239-.449.53 0 .292-.577.979-1.281 1.526-.705.547-1.52 1.435-1.81 1.973-.29.538-1.226 1.273-2.08 1.632-.856.36-1.558.99-1.564 1.401-.007.485-.266.66-.734.498-.838-.29-.91.21-.256 1.766.386.917.3 1.189-.495 1.574-.53.256-.83.66-.666.898.163.238.019.734-.32 1.102-.457.498-.479.865-.085 1.435.324.468.362 1.004.1 1.38-.587.836-.56 3.009.036 3.009.265 0 .5.539.52 1.197.02.658.147.953.28.653.316-.706 1.036-.706.967 0-.089.919 1.746 3.81 2.418 3.81.348 0 .633.276.633.612 0 .385.337.534.903.4.618-.146 1.235.21 1.96 1.13.582.738 1.477 1.342 1.989 1.342s.93.294.93.653c0 .36.326.653.723.653.398 0 .723.213.723.472 0 .26.271.381.603.272.331-.11.55-.413.487-.674-.063-.26.208-.362.602-.225.395.136.717.499.717.805 0 .543 2.753 1.963 3.807 1.963.292 0 .53.166.53.369 0 .203.672.386 1.494.407.822.021 1.88.355 2.353.741.576.471 1.273.608 2.12.416.74-.168 1.26-.103 1.26.156 0 .243.434.339.965.214 1.087-.257 1.263-.815.361-1.144-.331-.12-.114-.235.482-.254.627-.02 1.084.223 1.084.576 0 .727 2.683 1.764 4.216 1.629.596-.052 1.084.087 1.084.31 0 .674 1.523.983 2.23.453.512-.385.662-.345.662.175 0 .508.735.732 3.011.916 1.657.135 3.63.224 4.385.198 1.237-.041 1.347-.166 1.105-1.259-.19-.853-.049-1.288.473-1.47 1.125-.39 1.274-.319.948.45-.23.542-.075.652.671.475 1.237-.292 1.247.188.02.987-.875.57-.89.68-.18 1.389.544.542 1.009.654 1.579.378.458-.222 1.1-.228 1.482-.015.37.207.829.29 1.018.184.19-.105.958.021 1.71.282.75.261 2.45.562 3.774.67 1.325.107 2.816.308 3.313.446.588.164.789.083.574-.23-.495-.723.482-.581 1.173.17.847.923 1.445.81 1.445-.27 0-.677.162-.81.603-.5.331.235 1.307.64 2.168.903 1.47.446 1.566.413 1.566-.54 0-.648.347-1.097.962-1.242.757-.18.874-.085.547.443-.728 1.174 1.02 2.247 3.643 2.236 1.274-.005 3.24.182 4.367.415 1.198.247 2.162.262 2.318.034.146-.214.036-.39-.244-.39-.28 0-.51-.153-.51-.34 0-.538 2.728-1.326 3.363-.971.376.21.186.418-.552.605l-1.125.286 1.097.833c1.392 1.058 8.193 1.214 8.625.198.344-.812 1.12-.782 1.12.042 0 .402.451.654 1.172.654.986 0 1.166-.205 1.132-1.285-.03-.939-.302-1.32-1.011-1.415-.846-.114-.877-.2-.242-.672.615-.459.906-.23 1.886 1.494l1.158 2.036.274-1.277c.15-.702.105-1.708-.1-2.235-.29-.743-.215-.904.329-.716.386.134.705.468.71.742.004.297.176.256.428-.103.591-.844 1.592-.154 1.237.855-.16.458-.076.834.19.834.264 0 .62.392.787.87.168.48.617.872.996.872.38 0 .691.195.691.435 0 .58 1.745.554 2.984-.045.763-.369 1.089-.343 1.406.109.321.457.415.42.421-.173.009-.908 1.313-1 2.378-.168.419.327 1.575.707 2.568.844 1.41.194 1.807.105 1.807-.406 0-.657 1.171-.54 2.866.284.383.186 1.189.17 1.79-.037.656-.225 1.207-.207 1.379.044.42.614 3.488.511 3.725-.125.146-.393.391-.417.883-.085.374.253 1.926.51 3.449.57 2.448.096 2.903-.023 3.938-1.032l1.17-1.14.157 1.006c.149.946.348 1.001 3.29.913 1.723-.052 3.349-.115 3.614-.14.265-.025 3.442.09 7.061.255 6.173.28 6.594.25 6.811-.514.204-.718.238-.724.287-.051.049.68.587.955 1.601.82.733-.098 14.673-.587 15.922-.559.728.017 1.325-.153 1.325-.377 0-.247.443-.255 1.124-.02.619.212 1.412.225 1.764.029.355-.199 1-.154 1.449.1.504.283 1.522.323 2.694.104 1.036-.194 2.08-.31 2.321-.257.241.053.592-.13.782-.406.259-.38.598-.38 1.379-.003.569.275 1.232.39 1.473.255.242-.134 1.797-.34 3.457-.457 1.659-.116 3.157-.417 3.329-.668.171-.25.725-.448 1.232-.44 1.268.023 2.688.02 3.691-.005.463-.011.843-.303.843-.647 0-.344.325-.626.723-.626.397 0 .723.196.723.435 0 .24.311.436.692.436.493 0 .685-.51.666-1.763-.015-.97.107-1.884.271-2.032.164-.148.298.244.298.871 0 1.274.921 3.36 1.484 3.36.902 0 1.889-.58 1.889-1.11 0-.98 1.075-1.245 1.737-.427.742.918 2.362.562 1.942-.427-.161-.38-.003-.65.38-.65.361 0 .781.294.934.654.152.359.772.63 1.377.602.815-.037.881-.101.255-.25-.979-.23-1.142-1.005-.212-1.005.347 0 1.051.277 1.565.617.659.436 1.111.484 1.537.164.425-.319.604-.302.604.056 0 .337.526.42 1.566.244 1.672-.283 2.24-.37 7.107-1.091 1.723-.256 3.566-.644 4.096-.865.53-.22 1.506-.38 2.168-.355 1.722.066 4.979-.515 5.517-.984.252-.22.869-.399 1.372-.399.502 0 1.489-.366 2.192-.813.871-.554 1.587-.703 2.243-.466 1.524.549 2.162.465 1.861-.245-.176-.414.006-.653.497-.653.425 0 .774.196.774.435 0 .24.325.436.723.436.853 0 .862-.048.253-1.496-.306-.726-.306-1.117 0-1.117.258 0 .469.294.469.653 0 .36.416.653.924.653s.996.19 1.084.422c.094.248 1.08.124 2.378-.3 1.678-.546 2.352-1.043 2.77-2.043l.552-1.323.734.947c.698.9.828.916 2.702.318 1.083-.345 2.131-.537 2.33-.425.198.11.264-.26.144-.823-.212-1.007.862-2.151 1.188-1.266.092.248.448.799.792 1.224.552.682.847.71 2.512.241 1.038-.292 2.807-.906 3.93-1.364 1.124-.458 2.374-.833 2.78-.833.406 0 1.596-.49 2.646-1.088 1.049-.599 2.222-1.089 2.606-1.089.384 0 .985-.245 1.335-.544.35-.3 1.365-.597 2.254-.661.89-.065 2.076-.407 2.637-.762.561-.355 1.405-.645 1.876-.645.471 0 .856-.294.856-.654 0-.366.43-.653.979-.653.539 0 1.104-.294 1.256-.653.153-.36.802-.653 1.443-.653.799 0 1.309-.342 1.623-1.089.448-1.065 1.445-1.515 1.445-.653 0 .644.93.529 1.756-.217.397-.36 1.089-.654 1.537-.654.449 0 1.03-.425 1.291-.944.262-.52.908-1.156 1.436-1.415.528-.259 1.439-.912 2.025-1.45.585-.54 1.237-.989 1.449-.999.211-.01.926-.634 1.589-1.386a30.956 30.956 0 012.533-2.508c1.773-1.522 4.59-6.633 3.24-5.88-.974.545-.632-1.513.611-3.67.748-1.298 1.19-2.474.982-2.613-.209-.14-.38-1.608-.38-3.265-.001-2.019-.2-3.072-.603-3.193-.331-.1-.601-.438-.601-.751 0-.314-.305-.677-.677-.805-.373-.13-.823-.834-1.001-1.566-.178-.732-.523-1.443-.768-1.58-.245-.136-.453-.677-.462-1.202-.01-.524-.498-1.451-1.085-2.06-1.46-1.515-4.68-3.614-4.68-3.053 0 .252-.325.458-.723.458-.397 0-.723-.164-.723-.365 0-.201-.542-.59-1.204-.862-.663-.273-1.21-.843-1.217-1.268-.012-.788-2.75-2.295-4.171-2.295-.424 0-1.079-.343-1.456-.762-.471-.524-.761-.6-.926-.244-.164.35-.556.232-1.216-.365-.678-.612-1.331-.8-2.139-.618-.652.148-1.163.072-1.163-.174 0-.71-3.455-2.467-5.541-2.817-1.06-.177-2.149-.489-2.421-.691-.998-.745-6.032-2.028-9.55-2.435-1.101-.127-2.707-.397-3.569-.6-1.06-.249-1.566-.214-1.566.109 0 .261-.488.069-1.084-.43-.68-.568-1.981-.985-3.493-1.12a53.373 53.373 0 01-4.819-.704c-1.325-.269-3.665-.565-5.2-.659-1.535-.093-3.053-.359-3.373-.589-.32-.23-2.1-.437-3.955-.459-3.324-.04-4.114-.129-5.541-.624-1.297-.45-5.782-.633-5.782-.237 0 .213-.401.194-.89-.043-.612-.296-1.063-.274-1.446.072-.42.379-.556.353-.556-.104 0-.441-.164-.402-.606.144-.684.845-2.624.765-3.239-.135-.264-.385-.895-.484-1.912-.3-1.032.186-1.415.123-1.195-.199.202-.296-.089-.273-.781.062-.914.442-1.199.418-1.651-.14-.489-.606-.602-.6-1.093.053-.508.676-.551.673-.577-.033-.016-.42-.083-.78-.149-.802-.066-.021-2.275-.126-4.908-.232-2.634-.106-5.054-.391-5.378-.634-.404-.303-.697-.286-.929.053-.221.323-.948.385-2.091.18-2.984-.539-4.883-.495-4.883.113 0 .308-.217.56-.482.56s-.428-.22-.362-.49c.067-.27-.421-.543-1.084-.608a15.326 15.326 0 01-2.289-.432c-.82-.237-1.084-.142-1.084.39 0 .388.253.704.562.704.309 0 .4.147.202.326-.199.18-.634-.01-.967-.423-.823-1.018-3.069-1.09-5.032-.16-1.277.604-1.738.653-2.168.23-.413-.404-.4-.46.055-.229.369.189.602.046.602-.371 0-.373-.277-.679-.615-.679-.749 0-2.777 1.186-3.601 2.106-.524.585-.602.545-.602-.31 0-.786-.194-.928-.964-.707-.687.196-.964.078-.964-.413 0-.505-.42-.668-1.566-.608-.861.046-1.917.238-2.346.428-.429.189-.911.226-1.071.08-.161-.145-2.282-.32-4.713-.388-3.342-.094-4.695.039-5.548.544-.947.561-1.17.571-1.386.063-.27-.636-2.041-.748-3.037-.191-.323.18-.483.478-.358.661.126.184-.067.717-.429 1.184-.562.724-2.165.992-3.638.607-.407-.106 2.14-1.02 2.589-.929.231.047.285-.232.12-.62-.165-.39-.3-.889-.3-1.11 0-.234-1.567-.296-3.734-.147-4.405.3-4.326.3-6.024-.065-1.013-.22-1.325-.127-1.325.392 0 .6-.15.607-1.325.053-1.814-.855-5.42-.8-6.849.105-.824.521-1.217.584-1.352.218-.28-.76-2.78-.63-3.525.18-.583.635-.709.622-1.4-.15-.646-.72-.854-.756-1.388-.24zm6.202 1.216c0 .36-.216.678-.482.708l-.981.109c-.275.03-.705.348-.956.707-.648.927-.624-.235.027-1.335.587-.992 2.392-1.134 2.392-.189zm-25.538.846c0 .105-.217.313-.482.46-.265.149-.481.062-.481-.191 0-.254.216-.461.481-.461s.482.086.482.192zm-14.193 2.39c-.474.692-1.237.128-.9-.666.185-.437.448-.52.756-.242.26.235.325.643.144.907zm117.791-.623c0 .36-.318.653-.708.653-.43 0-.598-.255-.43-.653.153-.36.471-.653.708-.653s.43.294.43.653zm5.025-.327c-.239.18-.598.523-.795.762-.206.25-.363.109-.368-.326-.003-.424.35-.762.796-.762.442 0 .607.147.367.326zm-125.006.98c0 .24-.217.436-.482.436s-.481-.196-.481-.436.216-.435.481-.435.482.196.482.435zm15.289-.172c-.16.144-.576.16-.923.034-.385-.139-.271-.242.291-.263.508-.019.792.084.632.229zm117.22.64c0 .207-.325.263-.722.125-.398-.138-.723-.42-.723-.626 0-.206.325-.262.723-.124.397.138.722.42.722.626zm10.119-.468c0 .24-.379.433-.843.43-.721-.007-.738-.07-.12-.43.909-.531.963-.531.963 0zm-151.542.871c.164.24.068.435-.213.435-.28 0-.51-.196-.51-.435 0-.24.096-.435.213-.435.117 0 .346.196.51.435zm126.004 0c0 .24-.23.435-.51.435-.281 0-.376-.196-.213-.435.164-.24.394-.435.511-.435.117 0 .212.196.212.435zm12.025 1.065c.438.477.457.677.065.677-.306 0-.68-.294-.833-.653-.153-.36-.579-.654-.949-.654-.369 0-.671-.202-.671-.45 0-.564 1.502.115 2.388 1.08zm-6.373-.802c-.16.145-.576.16-.923.034-.385-.138-.271-.242.291-.263.508-.018.792.084.632.229zM74.988 7.693c-.627.567-.308 1.451.522 1.444.667-.005.705-.086.18-.387-.366-.209-.516-.597-.333-.864.364-.532.138-.65-.369-.193zM234.03 8.972c-.16.144-.575.16-.923.034-.384-.139-.27-.242.291-.263.508-.019.792.084.632.229zm1.577.607c0 .24-.217.436-.482.436s-.482-.196-.482-.436c0-.239.217-.435.482-.435s.482.196.482.435zm5.3.218c0 .36-.217.653-.482.653s-.482-.294-.482-.653c0-.36.217-.653.482-.653s.482.294.482.653zm13.492.897c0 .373-.217.557-.482.41-.265-.149-.482-.454-.482-.68 0-.225.217-.41.482-.41s.482.306.482.68zm17.828 3.893c0 .36-.325.653-.723.653-.397 0-.722-.294-.722-.653 0-.36.325-.653.722-.653.398 0 .723.294.723.653zm16.702 3.81c-.133.3-.243.054-.243-.544 0-.6.11-.844.243-.545.134.3.134.79 0 1.089zm-227.03 5.116c-.164.24-.068.436.212.436s.51-.196.51-.436-.095-.435-.212-.435c-.117 0-.346.196-.51.435zm-6.429 1.742c0 .599.11.844.243.544.134-.299.134-.789 0-1.088-.134-.3-.243-.055-.243.544zm-10.105.529c-.751.678-.733 1.338.03 1.088.332-.108.969.09 1.416.442.447.351 1.043.51 1.325.353.687-.384.652-1.106-.052-1.106-.31 0-.921-.291-1.356-.647-.61-.5-.922-.529-1.363-.13zm-6.481 1.908c-.159.144-.172.534-.03.87.207.487-.169.555-1.897.34-1.372-.17-2.276-.09-2.488.22-.184.268-.104.487.177.487.28 0 .51.466.51 1.034 0 .813.258 1.034 1.205 1.034.848 0 1.205-.236 1.205-.8 0-.882 1.341-1.697 2.289-1.39.403.13.495-.057.28-.566-.221-.519-.145-.66.24-.446.31.173.563.128.563-.1s-.343-.533-.762-.679c-.935-.324-.938-.324-1.292-.004zm3.018.934c0 .802.89 1.069 1.803.539.684-.398.696-.45.063-.276-.432.12-1.028-.003-1.325-.272-.4-.36-.54-.358-.54.009zm-10.36 1.419c-.163.24-.068.435.213.435.28 0 .51.278.51.617 0 .894 1.113 1.096 1.748.317.41-.503.39-.807-.086-1.236-.747-.675-1.967-.744-2.385-.133zm-3.252 1.17c-.464.11-.843.553-.843.985 0 .432-.366 1.055-.813 1.384-.708.52-.775.503-.512-.129.178-.432.02-.823-.392-.966-.38-.132-.693-.05-.693.182 0 .232-.325.422-.723.422-.397 0-.722.19-.722.422 0 .231-.303.316-.674.187-1.077-.373-1.212.404-.228 1.317.795.74.902.753.902.11 0-.402.325-.73.723-.73.397 0 .722.307.722.684 0 1.143 2.08.566 2.462-.684.21-.685.351-.806.381-.327.054.851.782 1.016 1.28.289.177-.26.728-.377 1.224-.26.736.173.817.072.444-.559-.25-.423-.325-.89-.164-1.035.32-.29-.742-1.622-1.228-1.541-.167.028-.682.14-1.146.25zm3.011 1.442c-.617.36-.6.423.12.43.465.003.844-.19.844-.43 0-.531-.054-.531-.964 0zM18.678 35.91c-2.48 1.446-2.741 1.817-1.472 2.1.464.102.139.107-.723.01-1.62-.183-2.156.435-.788.91.493.17.686.586.527 1.135-.138.476-.054.865.186.865s.437-.392.437-.87c0-.95.355-1.068 1.402-.469.79.451 2.453-.326 2.453-1.147 0-.312.35-.432.843-.29.68.199.71.16.151-.197-.564-.362-.578-.567-.078-1.111.497-.542.492-.818-.031-1.461-.613-.754-.756-.729-2.907.525zm-9.784 9.375c.167.243-.194.432-.815.429-.895-.006-.971-.09-.39-.43.897-.523.847-.523 1.205 0zm281.402 11.32c.164.24-.053.436-.482.436s-.646-.196-.482-.435c.164-.24.381-.436.482-.436.101 0 .318.196.482.436zm-8.266 4.592c-.158.37-.389.578-.516.464-.126-.114-.086-.416.089-.672.475-.695.752-.56.427.208zm-1.446 2.612c-.157.37-.389.579-.515.465-.126-.114-.087-.417.088-.672.475-.695.753-.56.427.207zm-11.249 1.505c0 .24-.23.436-.51.436-.281 0-.376-.196-.213-.436.164-.24.394-.435.511-.435.117 0 .212.196.212.435zm1.687 0c.163.24-.041.436-.454.436-.413 0-.751-.196-.751-.436s.204-.435.453-.435c.25 0 .588.196.752.435zm-32.044 8.709c0 .24-.216.435-.481.435s-.482-.195-.482-.435.217-.435.482-.435.481.196.481.435zM52.663 77.985c.22.15.058.39-.362.536-.55.19-.763.004-.763-.665 0-.511.163-.753.362-.536.198.217.542.516.763.665zm8.382.655c-.16.145-.576.16-.924.035-.384-.14-.27-.242.291-.263.508-.019.793.084.633.228zm118.184 1.697c0 .375-.435.653-1.023.653-.854 0-.924-.108-.423-.653.33-.36.791-.653 1.023-.653.233 0 .423.294.423.653zm-52.763.218c.164.239-.053.435-.482.435s-.645-.196-.482-.435c.164-.24.381-.436.482-.436.101 0 .318.196.482.436zm-19.033.164c0 .09-.325.408-.723.706-.592.445-.723.414-.723-.164 0-.389.326-.706.723-.706.398 0 .723.073.723.164zm31.802.028c0 .105-.217.313-.482.46-.265.149-.482.062-.482-.191 0-.254.217-.462.482-.462s.482.087.482.192zm-21.402 1.114c.376 0 .683.392.683.87 0 .48-.124.872-.276.872-.553 0-1.414-1.112-1.517-1.96-.059-.479.014-.626.16-.326.147.299.574.544.95.544zm-20.037.87c0 .562.244.87.602.763.332-.1.603-.443.603-.762 0-.32-.271-.663-.603-.762-.358-.108-.602.2-.602.762zm30.686.083c-.154.347-.268.243-.291-.264-.021-.459.093-.716.253-.571.16.144.177.52.038.835zm1.357 1.224c.164.24-.04.435-.453.435-.413 0-.752-.196-.752-.435 0-.24.204-.435.454-.435.249 0 .587.195.751.435z" fill="#fff"/></svg>