<svg width="360" height="163" fill="none" xmlns="http://www.w3.org/2000/svg"><path fill-rule="evenodd" clip-rule="evenodd" d="M-13 128.139l21.202 1.49c21.203 1.489 63.607 4.767 106.012 12.514C156.618 150.188 199.382 163 241.786 163c42.405 0 84.809-12.812 106.012-19.069L369 137.376V90H-13v38.139zM369.001 33.18l-21.202-1.418c-21.203-1.418-63.607-4.537-106.012-11.91C199.383 12.194 156.619 0 114.214 0 71.809 0 29.404 12.194 8.203 18.15L-13 24.39v45.09h382.001v-36.3z" fill="#FDF3B6"/><g filter="url(#filter0_d_3289_220)"><path fill-rule="evenodd" clip-rule="evenodd" d="M364.797 133.546l-20.881.785c-20.881.785-62.642 2.524-104.399 6.809-11.237 1.199-22.5 2.594-33.774 3.991-30.62 3.794-61.328 7.598-91.852 7.505-40.836-.125-81.683-7.226-103.005-10.933l-1.425-.248-20.888-3.797-.044-25.348-.954-74.759.196-.002-.074-3.11 20.785-4.33 1.417-.284c21.22-4.25 61.874-12.391 102.693-13.558 30.512-.872 61.307 2.148 92.013 5.16 11.307 1.108 22.601 2.215 33.866 3.127 41.852 3.218 83.644 3.892 104.538 4.143l20.894.252.09 3.8.066-.002.075 5.905.286 12.014-.133.004 1.008 78.961-.505.006.007 3.909z" fill="#C6ACC7"/></g><defs><filter id="filter0_d_3289_220" x="-13.559" y="16.115" width="379.988" height="138.792" filterUnits="userSpaceOnUse" color-interpolation-filters="sRGB"><feFlood flood-opacity="0" result="BackgroundImageFix"/><feColorMatrix in="SourceAlpha" values="0 0 0 0 0 0 0 0 0 0 0 0 0 0 0 0 0 0 127 0" result="hardAlpha"/><feOffset dy="1.134"/><feGaussianBlur stdDeviation=".567"/><feComposite in2="hardAlpha" operator="out"/><feColorMatrix values="0 0 0 0 0 0 0 0 0 0 0 0 0 0 0 0 0 0 0.25 0"/><feBlend in2="BackgroundImageFix" result="effect1_dropShadow_3289_220"/><feBlend in="SourceGraphic" in2="effect1_dropShadow_3289_220" result="shape"/></filter></defs></svg>