<svg width="236" height="165" fill="none" xmlns="http://www.w3.org/2000/svg"><path d="M164.045 2.213c-2.688-.596-7.016-1.136-9.524-1.097l-.097-.001c-2.508.039-6.467.318-8.886.72-2.419.401-6.981 1.841-10.189 3.128-3.209 1.288-7.694 3.72-9.946 5.388l-4.209 3.07c-8.489-4.591-13.75-6.683-17.205-7.474-3.454-.882-8.164-1.61-10.574-1.659-2.41-.05-7.824.652-12.086 1.557-4.263.995-9.7 2.778-12.135 3.99-2.438 1.303-6.152 3.752-8.213 5.514-2.155 1.669-5.608 5.476-7.693 8.41-2.085 2.932-4.485 7.122-5.206 9.361-.817 2.238-1.743 5.105-2.062 6.54-.52 1.884-1.206 2.41-3.327 2.368-1.445-.03-5.025.528-7.933 1.28-2.908.753-7.572 2.46-10.202 3.76-2.729 1.387-7.33 4.81-10.378 7.633-3.047 2.824-6.405 6.723-7.506 8.684-1.1 1.961-2.718 5.625-3.635 8.041-.823 2.508-1.866 6.365-2.205 8.792C.4 82.644.69 87.34 1.568 91.505c.694 3.802 2.32 9.155 3.617 11.796 1.201 2.55 4.485 7.035 7.127 9.885 2.74 2.761 6.911 6.272 9.292 7.764 3.904 2.424 4.371 3.155 5.43 7.956.52 2.896 2.254 7.71 3.639 10.714 1.482 3.006 4.76 7.762 7.403 10.521 2.737 2.942 7.296 6.371 10.825 8.247 3.339 1.781 8.216 3.774 10.9 4.55 2.59.685 7.784 1.332 11.544 1.408 4.048.083 9.268-.532 13.047-1.447 3.49-.92 8.938-3.244 12.158-5.072 3.221-1.918 6.939-4.547 8.318-5.962 2.365-2.477 2.752-2.559 11.138-2.388 7.039.054 9.745-.252 14.507-2.048l5.829-2.136c10.821 3.738 14.665 4.357 20.64 4.57 4.53.092 10.809-.411 14.006-1.157 3.197-.747 7.759-2.187 10.193-3.309 2.432-1.033 7.026-4.095 10.263-6.734 3.823-3.078 7.181-6.977 9.578-10.986 1.997-3.386 4.215-8.12 5.034-10.448 1.24-4.032 1.731-4.473 7.177-6.706 3.208-1.288 7.401-3.546 9.264-5.041 1.86-1.405 4.818-4.591 6.603-6.99 1.688-2.4 3.899-6.773 4.827-9.73 1.234-3.762 1.69-7.18 1.387-11.243-.223-3.25-.997-7.866-1.813-10.407-.818-2.451-3.048-6.555-5.021-9.12-1.876-2.563-5.853-6.16-8.708-8.023-3.235-2.14-7.823-4.127-12.14-5.207-6.811-1.762-7.002-1.856-7.518-4.932-.254-1.719-1.235-5.616-2.235-8.613-1-2.996-3.126-7.458-4.812-9.927-1.685-2.469-5.174-6.327-7.731-8.634-2.655-2.218-7.319-5.199-10.471-6.706-3.153-1.417-8.036-3.14-10.82-3.737z" fill="#fff" stroke="#612D0D" stroke-width=".563" stroke-dasharray="3.94 1.69"/></svg>