<svg width="310" height="85" viewBox="0 0 310 85" fill="none" xmlns="http://www.w3.org/2000/svg">
<path fill-rule="evenodd" clip-rule="evenodd" d="M129.178 0.743278C128.735 1.17218 128.374 1.2179 127.948 0.898291C127.116 0.273885 123.427 1.91894 122.836 3.17733C122.499 3.89448 122.461 3.71247 122.683 2.45582L122.979 0.775065L120.868 1.10947C117.78 1.5989 116.885 1.65158 116.354 1.37509C115.669 1.01847 112.59 1.315 111.937 1.8005C111.573 2.07134 111.308 2.02039 111.169 1.65115C110.999 1.19961 110.644 1.19308 109.371 1.61719C108.291 1.97729 107.503 2.00864 106.898 1.71603C106.22 1.38815 105.777 1.49614 105.03 2.17149C104.215 2.9078 103.706 3.00403 102.007 2.74451C100.884 2.57252 99.7474 2.49719 99.4824 2.57687C99.2174 2.65612 97.808 2.78152 96.3504 2.85511C92.138 3.06804 92.0137 3.08458 92.0137 3.4351C92.0137 3.61842 91.3304 3.6772 90.4949 3.5666C89.137 3.38634 89.0045 3.46384 89.245 4.29508C89.4257 4.91948 89.2912 5.22515 88.8364 5.22515C88.4639 5.22515 88.1589 4.93124 88.1589 4.57201C88.1589 4.13658 87.677 3.91887 86.7133 3.91887C85.8783 3.91887 85.2678 4.14877 85.2678 4.46315C85.2673 4.7993 84.5214 5.02965 83.3158 5.06579C81.0949 5.13197 80.3919 5.52168 81.4269 6.113C81.9069 6.38732 81.9416 6.52012 81.5334 6.52491C81.2024 6.52839 80.9311 6.82536 80.9311 7.18459C80.9311 7.54382 80.6059 7.83773 80.2083 7.83773C79.8108 7.83773 79.4855 7.54382 79.4855 7.18459C79.4855 6.82536 79.7024 6.53144 79.9674 6.53144C80.2324 6.53144 80.4493 6.3355 80.4493 6.09601C80.4493 5.43938 79.1439 5.5735 78.8524 6.25973C78.6972 6.62462 78.1475 6.78138 77.4473 6.66033C76.3844 6.47701 76.3121 6.57803 76.4947 7.991C76.6826 9.4449 77.8752 10.4629 78.4833 9.68831C78.637 9.4928 79.3593 9.29816 80.0879 9.25636C80.8164 9.21456 81.6842 9.15795 82.0153 9.13052C82.3468 9.10309 83.1052 9.21586 83.7018 9.38089C84.5113 9.60514 84.7859 9.50543 84.7859 8.9877C84.7859 8.42382 85.0158 8.37374 86.0219 8.71948C87.8818 9.35825 89.6044 9.24852 89.6044 8.49088C89.6044 8.08462 90.0593 7.83773 90.8091 7.83773C91.5131 7.83773 92.0137 8.0881 92.0137 8.43949C92.0137 9.2642 95.8256 9.31645 96.1735 8.49654C96.3123 8.16996 97.0052 7.91306 97.713 7.92525C100.165 7.96792 100.687 7.83468 100.687 7.16543C100.687 6.79575 100.958 6.52491 101.289 6.5641C101.621 6.60285 102.387 6.61156 102.993 6.58282C103.936 6.53884 104.02 6.40778 103.584 5.6706C103.168 4.96781 103.209 4.85635 103.808 5.06361C104.212 5.20382 104.542 5.59135 104.542 5.92489C104.542 6.25843 104.844 6.53144 105.213 6.53144C105.582 6.53144 106.008 6.82231 106.159 7.17762C106.562 8.12686 112.373 7.87474 113.697 6.85061C114.715 6.06292 115.874 5.81429 115.418 6.4818C115.273 6.69386 115.699 6.96121 116.365 7.0766C117.03 7.19155 117.693 7.11274 117.838 6.90156C117.982 6.68994 118.302 6.62985 118.549 6.76788C118.795 6.90548 118.997 6.81055 118.997 6.55713C118.997 6.30371 119.444 6.09601 119.99 6.09601C120.535 6.09601 120.848 6.29196 120.684 6.53144C120.501 6.79923 121.185 6.94162 122.462 6.90156C123.847 6.85801 124.106 6.77659 123.24 6.65728C122.314 6.5297 122.022 6.2876 122.223 5.81516C122.378 5.45071 122.637 5.31572 122.799 5.51515C123.255 6.07729 125.171 6.96687 125.927 6.96687C126.3 6.96687 127.604 6.11474 128.825 5.07275C130.344 3.77605 131.044 3.40332 131.044 3.89056C131.044 4.28158 130.389 4.95127 129.589 5.37799C127.953 6.2519 128.091 6.96687 129.896 6.96687C130.666 6.96687 130.98 6.79009 130.765 6.47658C130.525 6.12519 130.673 6.10908 131.287 6.41954C132.372 6.96818 133.935 6.61853 133.935 5.82735C133.935 5.49643 134.152 5.22515 134.417 5.22515C134.682 5.22515 134.898 5.48641 134.898 5.80558C134.898 6.7165 140.574 6.61243 140.846 5.69672C141.015 5.12849 141.06 5.14112 141.107 5.76944C141.171 6.64727 142.149 6.7718 142.994 6.00893C143.432 5.61269 143.572 5.61051 143.572 5.99978C143.572 6.56932 152.034 6.54451 153.047 5.97235C153.356 5.79774 153.719 5.90138 153.854 6.20226C154.042 6.61983 154.214 6.5998 154.586 6.11691C154.853 5.76901 154.967 5.33053 154.838 5.14199C154.71 4.95388 154.941 4.91643 155.352 5.05882C155.764 5.20164 156.1 5.54911 156.1 5.83171C156.1 6.39298 157.02 6.52099 160.678 6.46874C162.003 6.44958 164.821 6.47876 166.942 6.53318C173.695 6.70692 174.112 6.68645 174.302 6.17265C174.431 5.823 174.708 5.86741 175.206 6.31765C176.113 7.13712 179.097 7.15411 181.222 6.35161C182.626 5.82169 182.981 5.82169 183.782 6.35161C184.921 7.10403 185.914 7.17326 185.107 6.44436C184.321 5.7333 184.381 5.22515 185.252 5.22515C185.65 5.22515 185.975 5.51907 185.975 5.8783C185.975 6.23753 186.354 6.54755 186.818 6.56671C187.282 6.58631 188.312 6.64857 189.107 6.70518C189.902 6.76178 190.712 6.59893 190.907 6.34334C191.143 6.03244 191.263 6.05857 191.268 6.42259C191.272 6.72216 191.763 6.96382 192.359 6.96034C193.113 6.95555 193.253 6.84452 192.819 6.59502C192.316 6.3072 192.333 6.13215 192.905 5.70282C193.485 5.26783 193.714 5.33227 194.14 6.0516C194.453 6.57977 194.953 6.83407 195.384 6.68428C195.781 6.54668 196.374 6.6329 196.702 6.87587C197.673 7.59476 199.261 7.66269 200.115 7.02217C200.633 6.6342 200.912 6.59589 200.912 6.91375C200.912 7.43234 202.469 7.59171 202.985 7.1258C203.678 6.49922 207.134 6.54015 207.53 7.1798C207.949 7.85689 210.013 8.04412 213.096 7.68489C214.1 7.56776 215.563 7.63874 216.349 7.84208C217.134 8.04587 217.777 8.05457 217.777 7.86168C217.777 7.66878 218.319 7.51116 218.982 7.51116C219.644 7.51116 220.186 7.75761 220.186 8.05893C220.186 8.71338 222.001 9.23154 222.22 8.63936C222.303 8.4125 223.181 8.06198 224.17 7.86037C225.784 7.53162 225.968 7.58387 225.968 8.36765C225.968 9.14054 226.176 9.20585 227.775 8.93588C228.769 8.76824 229.414 8.78392 229.209 8.97072C228.669 9.46275 231.876 10.3667 232.551 9.91299C232.878 9.6931 233.24 9.72662 233.423 9.99354C233.594 10.2448 234.553 10.4503 235.553 10.4503C236.554 10.4503 237.529 10.5914 237.719 10.7638C238.259 11.2515 243.002 11.2615 243.677 10.7769C244.109 10.4655 244.279 10.5487 244.279 11.0717C244.279 11.6538 244.737 11.794 246.568 11.771C247.826 11.7549 249.585 11.8685 250.476 12.0235C251.523 12.2055 252.222 12.1197 252.453 11.781C252.729 11.3791 252.969 11.3926 253.485 11.8385C254.461 12.6836 256.657 13.4887 257.04 13.1426C257.639 12.6009 259.666 12.7942 259.931 13.4186C260.136 13.9015 260.339 13.9211 260.887 13.5101C261.582 12.9889 262.796 13.2797 262.392 13.8702C262.204 14.1441 263.564 14.2046 265.36 14.0017C265.691 13.9642 265.98 13.5906 266 13.1717C266.031 12.5626 266.095 12.5408 266.319 13.0629C266.474 13.4221 266.923 13.9311 267.319 14.1941C267.714 14.4571 267.895 14.8799 267.721 15.1334C267.526 15.4186 267.756 15.5117 268.325 15.3772C268.831 15.2579 270.032 15.4982 270.996 15.911C271.959 16.3243 273.823 16.6626 275.137 16.6626C276.451 16.6626 277.527 16.8324 277.527 17.0397C277.527 17.2474 277.852 17.4172 278.249 17.4172C278.647 17.4172 278.972 17.2003 278.972 16.9352C278.972 16.67 279.297 16.5659 279.695 16.7039C280.092 16.8415 280.418 16.7645 280.418 16.5328C280.418 15.8401 281.737 16.0556 282.053 16.7997C282.485 17.8178 282.454 17.8526 281.106 17.8526C279.929 17.8526 279.908 17.8901 280.706 18.6107C281.304 19.1506 281.602 19.2146 281.743 18.8328C281.877 18.4683 282.448 18.6464 283.525 19.3892C284.527 20.0803 285.417 20.3751 285.945 20.1922C286.438 20.021 286.949 20.1508 287.196 20.5105C287.426 20.8449 288 21.1188 288.473 21.1188C288.946 21.1192 289.359 21.3643 289.392 21.6631C289.425 21.9622 289.479 22.3715 289.513 22.5722C289.681 23.5933 293.91 24.405 293.91 23.4161C293.91 23.1235 294.247 23.3199 294.66 23.8524C295.073 24.3854 295.292 24.9945 295.147 25.2061C294.796 25.7199 295.771 26.3748 297.417 26.7301C298.214 26.9026 299.286 27.7125 300.067 28.7331C300.788 29.6758 301.645 30.4544 301.971 30.4635C302.298 30.4727 302.713 31.0122 302.893 31.6631C303.074 32.3137 303.621 33.2333 304.109 33.707C304.712 34.2918 304.884 34.8557 304.644 35.4636C304.45 35.9556 304.338 37.1304 304.396 38.0735C304.454 39.0171 304.178 40.2346 303.783 40.7797C303.388 41.3249 303.065 42.0712 303.065 42.4391C303.065 42.8066 302.847 43.0583 302.582 42.9987C302.316 42.9386 301.825 43.3797 301.49 43.9784C301.154 44.5771 300.395 45.2603 299.804 45.4967C299.212 45.7332 298.728 46.2622 298.728 46.6724C298.728 47.083 298.422 47.575 298.047 47.7666C297.672 47.9582 297.293 48.7028 297.204 49.4212C297.086 50.3727 296.778 50.7397 296.071 50.7719C294.798 50.8303 292.52 51.9245 291.03 53.1942C290.373 53.7533 289.78 54.1674 289.71 54.1139C289.353 53.8413 284.877 55.6592 283.918 56.4661C283.583 56.7482 283.309 57.2119 283.309 57.4963C283.309 57.7924 282.912 57.92 282.382 57.7946C281.873 57.6744 280.783 57.9452 279.961 58.3972C279.139 58.8487 278.154 59.2184 277.773 59.2184C277.391 59.2184 276.276 59.855 275.296 60.6327C274.316 61.4108 273.115 61.986 272.629 61.9115C272.006 61.8162 271.744 62.0443 271.744 62.6827C271.744 63.4473 271.543 63.5435 270.461 63.298C269.398 63.0572 269.229 63.1307 269.482 63.7251C269.685 64.2054 269.535 64.4436 269.028 64.4436C268.551 64.4436 268.371 64.2006 268.546 63.7904C268.734 63.3463 268.52 63.1373 267.875 63.1373C267.353 63.1373 266.926 63.3006 266.926 63.5C266.926 63.6998 266.655 63.8962 266.324 63.9372C261.028 64.5899 258.359 65.5112 258.161 66.7557C258.027 67.6009 257.942 67.6265 257.31 67.0117C256.593 66.3155 256.569 66.3177 252.389 67.4702C251.417 67.7385 249.809 68.052 248.815 68.1665C247.823 68.2814 246.761 68.5627 246.456 68.7913C246.151 69.0199 244.615 69.3356 243.042 69.4928C241.456 69.6513 239.17 70.2666 237.907 70.8753C236.079 71.7557 235.492 71.8676 234.926 71.4431C234.411 71.0569 233.962 71.0399 233.259 71.3804C232.729 71.6364 231.556 71.8459 230.652 71.8459C229.748 71.8459 228.335 72.1489 227.513 72.5195C226.593 72.9344 224.133 73.2754 221.109 73.4069C218.409 73.5244 215.825 73.8018 215.367 74.0235C214.91 74.2447 213.042 74.4576 211.217 74.4968C209.392 74.5359 207.026 74.8299 205.96 75.1503C204.894 75.4704 202.617 75.7678 200.901 75.8113C198.716 75.8671 197.441 76.1292 196.648 76.6865C195.665 77.3776 195.425 77.4002 194.825 76.8577C194.322 76.4031 193.815 76.3425 192.961 76.6356C192.316 76.8572 190.969 77.0231 189.966 77.0044C188.963 76.9857 187.926 77.0127 187.661 77.0645C187.396 77.1167 186.497 77.1259 185.662 77.0854C184.827 77.0449 184.002 77.2212 183.827 77.4768C183.652 77.7324 183.006 77.9419 182.391 77.9419C181.777 77.9419 181.009 78.2301 180.686 78.5828C180.2 79.1114 179.986 79.1236 179.465 78.6534C178.683 77.9458 173.162 78.1221 172.143 78.8872C171.596 79.2969 171.36 79.2852 171.05 78.8315C170.755 78.3991 169.303 78.2719 165.3 78.3277C159.447 78.4091 157.553 78.8167 157.531 79.9993C157.517 80.7151 157.478 80.7121 156.993 79.9579C156.569 79.2991 156.388 79.2577 156.044 79.7402C155.71 80.2083 155.56 80.1456 155.347 79.4476C155.163 78.8441 154.622 78.5271 153.661 78.4609C152.882 78.4073 152.245 78.5367 152.245 78.7487C152.245 78.9608 151.595 79.0653 150.8 78.9817C150.005 78.8981 149.354 79.0074 149.354 79.2247C149.354 79.7894 147.878 80.0045 146.423 79.6522C145.487 79.4254 145.038 79.5538 144.612 80.1704C144.3 80.6211 143.679 80.9899 143.231 80.9899C142.597 80.9899 142.544 80.8736 142.994 80.4674C144.219 79.3596 143.552 79.0309 140.191 79.0857C138.331 79.1158 136.697 78.9765 136.559 78.7753C136.193 78.2397 134.014 79.2521 133.772 80.0707C133.605 80.6359 133.554 80.6167 133.509 79.9718C133.459 79.2573 133.053 79.1837 129.719 79.2887C127.665 79.3531 125.504 79.5591 124.917 79.7459C124.289 79.9462 123.724 79.9013 123.543 79.6374C123.375 79.3905 122.906 79.3035 122.501 79.4437C122.097 79.5839 121.523 79.5277 121.225 79.3187C119.662 78.2214 117.596 78.6081 116.945 80.119C116.722 80.6381 116.657 80.6141 116.626 80.0032C116.599 79.4585 116.202 79.2395 115.263 79.2525C114.534 79.2621 113.403 79.2164 112.748 79.1502C111.437 79.0183 110.715 80.4012 111.784 80.9977C112.109 81.1793 112.226 81.5459 112.044 81.812C111.566 82.5108 110.806 82.4072 110.806 81.643C110.806 81.2838 110.581 80.9899 110.307 80.9899C109.977 80.9899 109.992 80.6803 110.351 80.0742C110.873 79.192 110.804 79.1646 108.44 79.3122C106.599 79.4276 105.987 79.3165 105.987 78.8685C105.987 78.3865 105.847 78.3756 105.265 78.8127C104.826 79.1415 104.542 79.1763 104.542 78.9011C104.542 78.6355 103.293 78.4452 101.53 78.4422C99.8741 78.4391 96.0979 78.3712 93.1398 78.2915C90.1812 78.2123 87.8611 78.2946 87.9845 78.4748C88.2832 78.9111 86.7538 78.3878 85.341 77.5696C84.5204 77.095 83.9909 77.0384 83.4136 77.3636C82.9698 77.614 82.1911 77.6619 81.6539 77.4725C80.2344 76.9713 76.6224 77.0083 74.4801 77.5461C73.0683 77.9001 72.5185 77.8875 72.2496 77.4947C72.0467 77.1977 70.6734 76.9469 69.0636 76.913C66.7194 76.8638 66.0491 77.0209 65.1505 77.833C63.8018 79.0518 62.8732 79.1332 63.6827 77.9615C64.365 76.9743 63.8403 76.2302 62.998 76.9913C62.1678 77.7416 61.432 77.6231 62.1389 76.8533C62.469 76.4941 62.6578 76.1901 62.5591 76.178C62.4608 76.1662 61.0089 76.0473 59.3335 75.9141C56.6019 75.6968 56.1596 75.7774 55.0494 76.6979L53.8115 77.7242L54.1296 76.5267C54.476 75.2222 54.5078 75.2374 51.1768 75.1098C50.0502 75.0663 49.1289 75.21 49.1289 75.429C49.1289 75.648 48.7882 75.5191 48.3719 75.1425C47.9551 74.7663 47.2323 74.4584 46.7654 74.4584C46.2985 74.4584 45.7781 74.333 45.6085 74.1802C45.4394 74.0269 44.4814 73.8519 43.4806 73.7914C38.8582 73.5101 35.9078 73.1003 35.3171 72.6575C34.8401 72.2996 34.4724 72.3253 33.8985 72.7559C33.2422 73.2479 33.0283 73.2192 32.5016 72.5682C32.0342 71.9909 31.8164 71.9408 31.6266 72.3671C31.4281 72.8121 31.283 72.8186 30.953 72.398C30.7212 72.1032 30.0278 71.9495 29.412 72.0566C28.7957 72.1642 27.0794 71.8668 25.5972 71.3961C24.1155 70.9249 22.5153 70.651 22.0421 70.7869C21.5145 70.938 21.1786 70.8117 21.1743 70.4599C21.1685 70.0375 21.0408 70.0584 20.6886 70.5396C20.2795 71.0987 20.0896 71.0543 19.3712 70.2326C18.9091 69.7049 17.2848 68.8449 15.7607 68.3215C14.2366 67.7986 12.99 67.2412 12.99 67.0831C12.99 66.9251 12.2311 66.8754 11.3035 66.9734C9.75293 67.1371 9.61705 67.0588 9.61705 66.0041C9.61705 65.0719 9.33999 64.8072 8.13488 64.5894C7.08878 64.4005 6.28505 63.7952 5.40278 62.532C4.71517 61.5475 4.20393 60.6758 4.26657 60.5939C4.32969 60.5121 4.06708 60.2182 3.68305 59.9408C3.29949 59.6634 2.84993 58.3118 2.68369 56.9381C2.41867 54.7409 2.49866 54.3743 3.34961 53.894C3.88157 53.594 4.31668 52.9056 4.31668 52.3643C4.31668 51.8235 4.5234 51.3807 4.77589 51.3807C5.02838 51.3807 5.59552 50.6949 6.03545 49.8567C6.47538 49.0185 7.13648 48.3327 7.50365 48.3327C7.87082 48.3327 8.1715 48.0858 8.1715 47.7845C8.1715 47.4827 8.60516 46.9911 9.1352 46.692C9.66524 46.3928 10.0989 45.7806 10.0989 45.3317C10.0989 44.8658 10.5379 44.4116 11.1224 44.2736C11.9454 44.079 12.0851 43.8138 11.836 42.9164C11.5334 41.8278 12.1535 41.3662 12.7491 42.2367C12.9129 42.4761 13.2276 42.6721 13.4487 42.6721C14.0477 42.6721 14.4905 41.3619 14.0877 40.7823C13.8949 40.5045 13.799 39.9345 13.8757 39.5152C13.9518 39.0963 13.7711 38.7532 13.4738 38.7532C13.1765 38.7532 13.0633 38.9435 13.2223 39.176C13.3813 39.4085 12.9683 39.7216 12.3043 39.8723C11.6403 40.0229 10.9662 40.5185 10.8063 40.9735C10.6468 41.4289 10.3138 41.8012 10.0666 41.8012C9.81943 41.8012 9.61705 42.0398 9.61705 42.3316C9.61705 42.6233 9.04028 43.31 8.33581 43.8573C7.63086 44.4042 6.81653 45.2925 6.52646 45.8303C6.23638 46.3685 5.29966 47.1026 4.44534 47.4618C3.58957 47.8215 2.88751 48.4511 2.88173 48.8635C2.87498 49.3481 2.61623 49.5231 2.14835 49.3612C1.30993 49.0703 1.23765 49.5706 1.89201 51.1268C2.27845 52.0443 2.19268 52.316 1.39666 52.7009C0.867589 52.9569 0.567877 53.3606 0.730743 53.5988C0.893609 53.8365 0.750017 54.3325 0.411757 54.7008C-0.0455202 55.199 -0.0676851 55.566 0.325988 56.136C0.650274 56.6045 0.68834 57.1397 0.425249 57.5154C-0.160683 58.3519 -0.134181 60.5247 0.46187 60.5247C0.726888 60.5247 0.961068 61.0638 0.981788 61.7221C1.00251 62.3805 1.12923 62.6749 1.26271 62.3753C1.57832 61.6694 2.29772 61.6694 2.2293 62.3753C2.14016 63.294 3.97457 66.1853 4.64675 66.1853C4.99513 66.1853 5.28039 66.4609 5.28039 66.7975C5.28039 67.182 5.61672 67.3305 6.18289 67.1968C6.80063 67.0509 7.41836 67.4067 8.14307 68.3263C8.72466 69.0648 9.61994 69.6687 10.1317 69.6687C10.6439 69.6687 11.0626 69.9626 11.0626 70.3219C11.0626 70.6811 11.3879 70.975 11.7854 70.975C12.1829 70.975 12.5082 71.1875 12.5082 71.4466C12.5082 71.7061 12.7794 71.8284 13.1105 71.7187C13.442 71.609 13.6612 71.3059 13.5981 71.0451C13.535 70.7843 13.8063 70.6828 14.2004 70.8196C14.5946 70.9563 14.9174 71.319 14.9174 71.6251C14.9174 72.1685 17.6702 73.5876 18.7245 73.5876C19.0161 73.5876 19.2541 73.7539 19.2541 73.9568C19.2541 74.1597 19.9263 74.343 20.7483 74.3644C21.5699 74.3853 22.6285 74.7188 23.1007 75.1051C23.677 75.5762 24.3738 75.7129 25.2204 75.5209C25.9605 75.3532 26.4819 75.4177 26.4819 75.6768C26.4819 75.9197 26.9155 76.016 27.4456 75.891C28.5331 75.6337 28.7095 75.0759 27.807 74.7467C27.4759 74.6261 27.6928 74.5116 28.2888 74.4928C28.9157 74.4728 29.373 74.7158 29.373 75.0689C29.373 75.7961 32.0564 76.8328 33.5892 76.6979C34.1852 76.6456 34.6733 76.7849 34.6733 77.0079C34.6733 77.6815 36.196 77.9906 36.9029 77.4607C37.4151 77.0762 37.5645 77.1159 37.5645 77.6362C37.5645 78.1439 38.3002 78.3677 40.576 78.5523C42.2326 78.6869 44.2053 78.7757 44.9609 78.7505C46.1983 78.7087 46.3077 78.5837 46.0658 77.4912C45.8769 76.6382 46.0171 76.2028 46.5389 76.0216C47.6645 75.6315 47.813 75.702 47.4867 76.4706C47.2564 77.0131 47.4116 77.1228 48.158 76.9465C49.3954 76.6543 49.405 77.1342 48.1782 77.9332C47.3027 78.5036 47.2887 78.6133 47.998 79.3218C48.5415 79.8643 49.0065 79.9758 49.577 79.7001C50.0353 79.4781 50.6771 79.472 51.0592 79.6853C51.4297 79.8922 51.888 79.9753 52.0769 79.8695C52.2662 79.7637 53.0353 79.8904 53.7865 80.1513C54.5377 80.4121 56.2362 80.7129 57.5613 80.8205C58.8864 80.9276 60.3772 81.1288 60.874 81.2673C61.4624 81.431 61.6628 81.3504 61.4479 81.0365C60.9535 80.3137 61.9302 80.456 62.6207 81.2076C63.4678 82.1303 64.0663 82.0179 64.0663 80.9368C64.0663 80.2605 64.2282 80.1269 64.6686 80.4378C65.0001 80.672 65.9759 81.0778 66.8369 81.3395C68.3066 81.7863 68.403 81.7528 68.403 80.8005C68.403 80.1517 68.7504 79.7032 69.3652 79.5578C70.1222 79.3788 70.2388 79.4733 69.9121 80.001C69.1845 81.1754 70.9322 82.2478 73.5554 82.2374C74.8294 82.2322 76.7944 82.419 77.9224 82.6519C79.1198 82.8992 80.084 82.9136 80.2396 82.6859C80.3861 82.4716 80.2763 82.2962 79.9958 82.2962C79.7154 82.2962 79.4855 82.1433 79.4855 81.9561C79.4855 81.4183 82.2143 80.6302 82.8489 80.9847C83.2247 81.1945 83.0349 81.4027 82.2972 81.5903L81.172 81.876L82.2687 82.7094C83.6613 83.7675 90.4621 83.9229 90.8939 82.9066C91.2384 82.0954 92.0137 82.125 92.0137 82.9493C92.0137 83.3508 92.4652 83.6025 93.186 83.6025C94.1724 83.6025 94.3521 83.3982 94.3179 82.3179C94.2885 81.3792 94.0163 80.9982 93.307 80.9028C92.4609 80.7887 92.4295 80.7029 93.0646 80.2305C93.6804 79.772 93.9705 80.0015 94.9511 81.7249L96.1094 83.761L96.3826 82.4843C96.533 81.7819 96.4877 80.7761 96.2829 80.2488C95.9938 79.5059 96.068 79.3448 96.612 79.5334C96.998 79.667 97.3174 80.0006 97.3213 80.2745C97.3256 80.5723 97.4977 80.5309 97.7497 80.1721C98.3414 79.3279 99.3417 80.018 98.9875 81.0265C98.8266 81.4854 98.9114 81.8607 99.1764 81.8607C99.4414 81.8607 99.7961 82.2526 99.9642 82.7316C100.132 83.2106 100.581 83.6025 100.96 83.6025C101.34 83.6025 101.651 83.7984 101.651 84.0379C101.651 84.6183 103.396 84.5922 104.635 83.993C105.398 83.6242 105.724 83.6495 106.041 84.1019C106.362 84.5595 106.456 84.5212 106.462 83.929C106.471 83.0207 107.775 82.9289 108.84 83.7614C109.259 84.088 110.415 84.4677 111.408 84.6048C112.818 84.799 113.215 84.7098 113.215 84.199C113.215 83.5419 114.386 83.6582 116.081 84.4825C116.464 84.6693 117.27 84.6532 117.871 84.4463C118.527 84.2212 119.078 84.2386 119.25 84.4899C119.67 85.1043 122.738 85.0011 122.975 84.3645C123.121 83.9717 123.366 83.9482 123.858 84.28C124.232 84.5334 125.784 84.7894 127.307 84.8495C129.755 84.9458 130.21 84.8269 131.245 83.818L132.415 82.6776L132.572 83.6843C132.721 84.6301 132.92 84.6854 135.862 84.5965C137.585 84.5447 139.211 84.482 139.476 84.4568C139.741 84.432 142.918 84.5469 146.537 84.7115C152.71 84.9928 153.131 84.9614 153.348 84.1981C153.552 83.4801 153.586 83.474 153.635 84.1468C153.684 84.8265 154.222 85.1016 155.236 84.9667C155.969 84.8687 169.909 84.3801 171.158 84.4084C171.886 84.425 172.483 84.2552 172.483 84.0309C172.483 83.7845 172.926 83.7762 173.607 84.0105C174.226 84.2229 175.019 84.236 175.371 84.0396C175.726 83.8415 176.371 83.8859 176.82 84.1393C177.324 84.4232 178.342 84.4629 179.514 84.2439C180.55 84.0501 181.594 83.9347 181.835 83.9874C182.076 84.0405 182.427 83.8572 182.617 83.5807C182.876 83.2006 183.215 83.2001 183.996 83.5776C184.565 83.8528 185.228 83.9678 185.469 83.8332C185.711 83.6987 187.266 83.4927 188.926 83.3765C190.585 83.2598 192.083 82.9593 192.255 82.7085C192.426 82.4577 192.98 82.2596 193.487 82.2687C194.755 82.2909 196.175 82.2888 197.178 82.2635C197.641 82.2518 198.021 81.9605 198.021 81.616C198.021 81.2716 198.346 80.9899 198.744 80.9899C199.141 80.9899 199.467 81.1858 199.467 81.4253C199.467 81.6648 199.778 81.8607 200.159 81.8607C200.652 81.8607 200.844 81.3517 200.825 80.0981C200.81 79.1284 200.932 78.214 201.096 78.066C201.26 77.9179 201.394 78.3098 201.394 78.9373C201.394 80.2113 202.315 82.2962 202.878 82.2962C203.78 82.2962 204.767 81.7166 204.767 81.1867C204.767 80.2061 205.842 79.9422 206.504 80.7604C207.246 81.6779 208.866 81.3217 208.446 80.3333C208.285 79.9536 208.443 79.6836 208.826 79.6836C209.187 79.6836 209.607 79.9775 209.76 80.3367C209.912 80.696 210.532 80.9672 211.137 80.9394C211.952 80.9019 212.018 80.8375 211.392 80.6899C210.413 80.4587 210.25 79.6836 211.18 79.6836C211.527 79.6836 212.231 79.9614 212.745 80.3006C213.404 80.7365 213.856 80.7848 214.282 80.4652C214.707 80.1465 214.886 80.163 214.886 80.5209C214.886 80.8584 215.412 80.9402 216.452 80.7648C218.124 80.4822 218.692 80.3951 223.559 79.674C225.282 79.4184 227.125 79.0296 227.655 78.8088C228.185 78.5885 229.161 78.4287 229.823 78.4539C231.545 78.5201 234.802 77.9393 235.34 77.4699C235.592 77.2504 236.209 77.071 236.712 77.071C237.214 77.071 238.201 76.7053 238.904 76.2576C239.775 75.7038 240.491 75.5553 241.147 75.7917C242.671 76.3408 243.309 76.2568 243.008 75.547C242.832 75.1334 243.014 74.8939 243.505 74.8939C243.93 74.8939 244.279 75.0898 244.279 75.3293C244.279 75.5688 244.604 75.7647 245.002 75.7647C245.855 75.7647 245.864 75.7168 245.255 74.269C244.949 73.5432 244.949 73.1522 245.255 73.1522C245.513 73.1522 245.724 73.4461 245.724 73.8053C245.724 74.1645 246.14 74.4584 246.648 74.4584C247.156 74.4584 247.644 74.6483 247.732 74.8804C247.826 75.1277 248.812 75.0036 250.11 74.5808C251.788 74.0343 252.462 73.5366 252.88 72.5365L253.432 71.2145L254.166 72.1607C254.864 73.0616 254.994 73.0768 256.868 72.4794C257.951 72.1341 258.999 71.9425 259.198 72.0536C259.396 72.1642 259.462 71.7941 259.342 71.2306C259.13 70.2243 260.204 69.08 260.53 69.9652C260.622 70.2134 260.978 70.7638 261.322 71.1888C261.874 71.8707 262.169 71.899 263.834 71.43C264.872 71.1379 266.641 70.5243 267.764 70.0663C268.888 69.6082 270.138 69.2333 270.544 69.2333C270.95 69.2333 272.14 68.7434 273.19 68.1447C274.239 67.546 275.412 67.0561 275.796 67.0561C276.18 67.0561 276.781 66.811 277.131 66.5119C277.481 66.2127 278.496 65.9149 279.385 65.8509C280.275 65.7864 281.461 65.4437 282.022 65.0889C282.583 64.734 283.427 64.4436 283.898 64.4436C284.369 64.4436 284.754 64.1497 284.754 63.7904C284.754 63.4242 285.184 63.1373 285.733 63.1373C286.272 63.1373 286.837 62.8434 286.989 62.4841C287.142 62.1249 287.791 61.831 288.432 61.831C289.231 61.831 289.741 61.4892 290.055 60.7424C290.503 59.6774 291.5 59.2267 291.5 60.0893C291.5 60.7333 292.43 60.6179 293.256 59.8716C293.653 59.5123 294.345 59.2184 294.793 59.2184C295.242 59.2184 295.823 58.7934 296.084 58.2744C296.346 57.7549 296.992 57.1183 297.52 56.8593C298.048 56.6002 298.959 55.9475 299.545 55.4084C300.13 54.8698 300.782 54.4204 300.994 54.4104C301.205 54.3999 301.92 53.7764 302.583 53.024C303.245 52.2716 304.386 51.1425 305.116 50.5155C306.889 48.9937 309.706 43.8826 308.356 44.6363C307.382 45.181 307.724 43.1228 308.967 40.9656C309.715 39.6676 310.157 38.492 309.949 38.3531C309.74 38.2137 309.569 36.7446 309.569 35.0882C309.568 33.0691 309.369 32.0163 308.966 31.8948C308.635 31.7951 308.365 31.4572 308.365 31.1437C308.365 30.8297 308.06 30.4674 307.688 30.3386C307.315 30.2092 306.865 29.5047 306.687 28.7727C306.509 28.0408 306.164 27.3302 305.919 27.1934C305.674 27.0572 305.466 26.5159 305.457 25.9912C305.447 25.4665 304.959 24.5395 304.372 23.9312C302.912 22.4163 299.692 20.3167 299.692 20.8784C299.692 21.1301 299.367 21.336 298.969 21.336C298.572 21.336 298.246 21.1715 298.246 20.9707C298.246 20.7696 297.704 20.3816 297.042 20.109C296.379 19.836 295.832 19.266 295.825 18.8415C295.813 18.0533 293.075 16.5463 291.654 16.5463C291.23 16.5463 290.575 16.2032 290.198 15.7843C289.727 15.2605 289.437 15.1839 289.272 15.5396C289.108 15.8897 288.716 15.7721 288.056 15.1752C287.378 14.5629 286.725 14.3744 285.917 14.5573C285.265 14.7053 284.754 14.6287 284.754 14.3831C284.754 13.6725 281.299 11.916 279.213 11.5663C278.153 11.3887 277.064 11.0773 276.792 10.8749C275.794 10.1303 270.76 8.84662 267.242 8.43993C266.141 8.31278 264.535 8.04282 263.673 7.84034C262.613 7.59128 262.107 7.62611 262.107 7.94877C262.107 8.21046 261.619 8.01756 261.023 7.51943C260.343 6.9512 259.042 6.53405 257.53 6.39864C256.205 6.27976 254.036 5.96321 252.711 5.69455C251.386 5.42632 249.046 5.13023 247.511 5.03618C245.976 4.94256 244.458 4.67738 244.138 4.44704C243.818 4.2167 242.038 4.01031 240.183 3.9881C236.859 3.94847 236.069 3.85921 234.642 3.36413C233.345 2.91433 228.86 2.73058 228.86 3.12725C228.86 3.34018 228.459 3.32059 227.97 3.08371C227.358 2.78762 226.907 2.80983 226.524 3.15556C226.104 3.53482 225.968 3.50913 225.968 3.05192C225.968 2.61083 225.804 2.65002 225.362 3.19562C224.678 4.04122 222.738 3.96067 222.123 3.0615C221.859 2.67615 221.228 2.57687 220.211 2.76062C219.179 2.94699 218.796 2.88385 219.016 2.5625C219.218 2.26641 218.927 2.28949 218.235 2.62433C217.321 3.06629 217.036 3.04191 216.584 2.48369C216.095 1.87844 215.982 1.8841 215.491 2.53725C214.983 3.2126 214.94 3.20999 214.914 2.50372C214.898 2.08484 214.831 1.72387 214.765 1.70209C214.699 1.68076 212.49 1.57626 209.857 1.47045C207.223 1.3642 204.803 1.07856 204.479 0.835589C204.075 0.532531 203.782 0.549512 203.55 0.888712C203.329 1.2118 202.602 1.2745 201.459 1.06854C198.475 0.530353 196.576 0.574332 196.576 1.18176C196.576 1.4896 196.359 1.74172 196.094 1.74172C195.829 1.74172 195.666 1.52139 195.732 1.25186C195.799 0.982329 195.311 0.708879 194.648 0.644C193.986 0.579121 192.956 0.384919 192.359 0.212054C191.539 -0.0252551 191.275 0.0696684 191.275 0.602199C191.275 0.989731 191.528 1.30629 191.837 1.30629C192.146 1.30629 192.237 1.45303 192.039 1.63199C191.84 1.81139 191.405 1.6211 191.072 1.20919C190.249 0.191154 188.003 0.119743 186.04 1.04895C184.763 1.65289 184.302 1.70209 183.872 1.27929C183.459 0.874778 183.472 0.818608 183.927 1.05026C184.296 1.2388 184.529 1.09554 184.529 0.678835C184.529 0.305672 184.252 0 183.914 0C183.165 0 181.137 1.18611 180.313 2.10617C179.789 2.69139 179.711 2.65089 179.711 1.79571C179.711 1.0102 179.517 0.867811 178.747 1.08857C178.06 1.28539 177.783 1.16695 177.783 0.675787C177.783 0.171124 177.363 0.00827298 176.217 0.0683623C175.356 0.114082 174.3 0.306107 173.871 0.495519C173.442 0.684931 172.96 0.721506 172.8 0.576508C172.639 0.431075 170.518 0.256468 168.087 0.188105C164.745 0.0944879 163.392 0.226858 162.539 0.732392C161.592 1.29323 161.369 1.30324 161.153 0.795094C160.883 0.158932 159.112 0.0474614 158.116 0.60394C157.793 0.783773 157.633 1.08161 157.758 1.26536C157.884 1.44911 157.691 1.98208 157.329 2.44886C156.767 3.17341 155.164 3.44076 153.691 3.05584C153.284 2.9496 155.831 2.0352 156.28 2.12707C156.511 2.1741 156.565 1.89499 156.4 1.50615C156.235 1.11775 156.1 0.61831 156.1 0.397112C156.1 0.163286 154.533 0.101455 152.366 0.249501C147.961 0.549947 148.04 0.550818 146.342 0.184622C145.329 -0.034399 145.017 0.0579119 145.017 0.576508C145.017 1.1774 144.867 1.1835 143.692 0.630067C141.878 -0.225117 138.272 -0.169818 136.843 0.735005C136.019 1.25621 135.626 1.31935 135.491 0.95272C135.211 0.193766 132.711 0.322218 131.966 1.13342C131.383 1.76828 131.257 1.75478 130.566 0.983636C129.92 0.263 129.712 0.226859 129.178 0.743278ZM135.38 1.95943C135.38 2.31866 135.164 2.63696 134.898 2.66701C134.633 2.69705 134.192 2.74582 133.917 2.77586C133.642 2.80591 133.212 3.12421 132.961 3.48344C132.313 4.40959 132.337 3.2483 132.988 2.14841C133.575 1.1565 135.38 1.01412 135.38 1.95943ZM109.842 2.8046C109.842 2.91041 109.625 3.11768 109.36 3.26572C109.095 3.41377 108.879 3.32712 108.879 3.0737C108.879 2.82028 109.095 2.61258 109.36 2.61258C109.625 2.61258 109.842 2.69879 109.842 2.8046ZM95.6488 5.19424C95.1751 5.88701 94.4119 5.32269 94.7487 4.5289C94.9342 4.09217 95.1968 4.00856 95.5052 4.28724C95.7649 4.52194 95.8295 4.92993 95.6488 5.19424ZM213.44 4.57201C213.44 4.93124 213.122 5.22515 212.732 5.22515C212.302 5.22515 212.134 4.96999 212.302 4.57201C212.455 4.21278 212.773 3.91887 213.01 3.91887C213.247 3.91887 213.44 4.21278 213.44 4.57201ZM218.465 4.24544C218.226 4.42527 217.867 4.76795 217.67 5.00744C217.464 5.25607 217.307 5.11586 217.302 4.68087C217.299 4.25719 217.652 3.91887 218.098 3.91887C218.54 3.91887 218.705 4.06561 218.465 4.24544ZM93.4593 5.22515C93.4593 5.46464 93.2424 5.66058 92.9774 5.66058C92.7124 5.66058 92.4955 5.46464 92.4955 5.22515C92.4955 4.98567 92.7124 4.78972 92.9774 4.78972C93.2424 4.78972 93.4593 4.98567 93.4593 5.22515ZM108.748 5.05272C108.588 5.19729 108.172 5.21296 107.825 5.08712C107.44 4.94822 107.554 4.84502 108.116 4.82412C108.624 4.8054 108.908 4.90816 108.748 5.05272ZM225.968 5.69368C225.968 5.89963 225.643 5.9558 225.246 5.81821C224.848 5.68018 224.523 5.39845 224.523 5.19206C224.523 4.9861 224.848 4.92993 225.246 5.06753C225.643 5.20556 225.968 5.48728 225.968 5.69368ZM236.087 5.22515C236.087 5.46464 235.708 5.65754 235.244 5.65405C234.523 5.64839 234.506 5.58569 235.124 5.22515C236.033 4.69393 236.087 4.69393 236.087 5.22515ZM84.545 6.09601C84.7088 6.3355 84.6129 6.53144 84.3325 6.53144C84.0521 6.53144 83.8222 6.3355 83.8222 6.09601C83.8222 5.85653 83.9176 5.66058 84.0347 5.66058C84.1518 5.66058 84.3812 5.85653 84.545 6.09601ZM210.549 6.09601C210.549 6.3355 210.319 6.53144 210.039 6.53144C209.758 6.53144 209.663 6.3355 209.826 6.09601C209.99 5.85653 210.22 5.66058 210.337 5.66058C210.454 5.66058 210.549 5.85653 210.549 6.09601ZM222.574 7.16064C223.012 7.63787 223.031 7.83773 222.639 7.83773C222.333 7.83773 221.959 7.54382 221.806 7.18459C221.653 6.82536 221.227 6.53144 220.857 6.53144C220.488 6.53144 220.186 6.32853 220.186 6.08077C220.186 5.51689 221.688 6.19573 222.574 7.16064ZM216.201 6.35901C216.041 6.50357 215.625 6.51925 215.278 6.39341C214.893 6.25451 215.007 6.15131 215.569 6.13041C216.077 6.11169 216.361 6.21445 216.201 6.35901ZM74.9884 7.69273C74.3606 8.25966 74.68 9.14402 75.5103 9.13749C76.1772 9.13226 76.2147 9.05127 75.6895 8.75039C75.3243 8.54138 75.1744 8.15255 75.3566 7.8865C75.7208 7.35397 75.4949 7.2351 74.9884 7.69273ZM234.029 8.97159C233.869 9.11615 233.454 9.13183 233.106 9.00599C232.722 8.86709 232.836 8.76389 233.397 8.74299C233.905 8.72426 234.189 8.82703 234.029 8.97159ZM235.606 9.57945C235.606 9.81893 235.389 10.0149 235.124 10.0149C234.859 10.0149 234.642 9.81893 234.642 9.57945C234.642 9.33996 234.859 9.14402 235.124 9.14402C235.389 9.14402 235.606 9.33996 235.606 9.57945ZM240.906 9.79716C240.906 10.1564 240.689 10.4503 240.424 10.4503C240.159 10.4503 239.942 10.1564 239.942 9.79716C239.942 9.43793 240.159 9.14402 240.424 9.14402C240.689 9.14402 240.906 9.43793 240.906 9.79716ZM254.398 10.6937C254.398 11.0669 254.181 11.2515 253.916 11.1035C253.651 10.9554 253.434 10.6502 253.434 10.4246C253.434 10.1991 253.651 10.0149 253.916 10.0149C254.181 10.0149 254.398 10.3205 254.398 10.6937ZM272.226 14.5869C272.226 14.9461 271.901 15.24 271.503 15.24C271.106 15.24 270.781 14.9461 270.781 14.5869C270.781 14.2277 271.106 13.9337 271.503 13.9337C271.901 13.9337 272.226 14.2277 272.226 14.5869ZM288.928 18.3969C288.795 18.6965 288.685 18.4513 288.685 17.8526C288.685 17.2539 288.795 17.0092 288.928 17.3083C289.062 17.6079 289.062 18.0978 288.928 18.3969ZM61.898 23.5132C61.7341 23.7527 61.83 23.9486 62.1105 23.9486C62.3909 23.9486 62.6207 23.7527 62.6207 23.5132C62.6207 23.2737 62.5253 23.0778 62.4082 23.0778C62.2912 23.0778 62.0618 23.2737 61.898 23.5132ZM55.4691 25.2549C55.4691 25.8536 55.5785 26.0988 55.712 25.7992C55.8459 25.5001 55.8459 25.0102 55.712 24.7106C55.5785 24.4115 55.4691 24.6562 55.4691 25.2549ZM45.3637 25.7835C44.613 26.4619 44.6313 27.122 45.3945 26.8721C45.7261 26.7637 46.3626 26.9622 46.8097 27.3136C47.2569 27.6654 47.853 27.8239 48.1348 27.6668C48.8215 27.2831 48.7873 26.5612 48.0828 26.5612C47.7725 26.5612 47.162 26.2699 46.7269 25.9142C46.1164 25.4147 45.8046 25.3851 45.3637 25.7835ZM38.8828 27.6924C38.7243 27.8357 38.7108 28.2263 38.8529 28.5611C39.0601 29.0492 38.6843 29.1167 36.9559 28.9025C35.5836 28.7327 34.6796 28.8128 34.4676 29.1224C34.2845 29.3902 34.3645 29.6092 34.6449 29.6092C34.9254 29.6092 35.1552 30.0747 35.1552 30.6434C35.1552 31.4563 35.413 31.6775 36.3598 31.6775C37.2084 31.6775 37.5645 31.4406 37.5645 30.8763C37.5645 29.9946 38.9064 29.1799 39.8537 29.4869C40.2566 29.6175 40.3491 29.4298 40.1332 28.9212C39.9125 28.4022 39.9891 28.2602 40.3736 28.4749C40.684 28.6482 40.9374 28.6034 40.9374 28.3752C40.9374 28.147 40.5943 27.8418 40.1751 27.6964C39.2399 27.372 39.237 27.372 38.8828 27.6924ZM41.9011 28.6256C41.9011 29.4285 42.7916 29.6945 43.7042 29.1646C44.3875 28.7675 44.3995 28.7144 43.7668 28.889C43.3351 29.0083 42.7391 28.886 42.4418 28.6173C42.0423 28.2563 41.9011 28.2585 41.9011 28.6256ZM31.5413 30.0446C31.3775 30.2841 31.4734 30.4801 31.7538 30.4801C32.0342 30.4801 32.2641 30.7579 32.2641 31.0971C32.2641 31.991 33.3772 32.1926 34.0122 31.4136C34.4223 30.9107 34.4011 30.6072 33.926 30.1783C33.1786 29.5025 31.9586 29.4342 31.5413 30.0446ZM28.2888 31.2155C27.8248 31.3252 27.4456 31.7685 27.4456 32.2004C27.4456 32.6324 27.0798 33.2551 26.6327 33.5838C25.9248 34.1037 25.8583 34.0872 26.1205 33.4554C26.2992 33.023 26.1412 32.6324 25.7287 32.4891C25.3481 32.3572 25.0363 32.4391 25.0363 32.6707C25.0363 32.9028 24.7111 33.0926 24.3135 33.0926C23.916 33.0926 23.5908 33.2825 23.5908 33.5146C23.5908 33.7462 23.2877 33.8311 22.9166 33.7022C21.8402 33.3291 21.7053 34.1059 22.6887 35.0194C23.4843 35.7588 23.5908 35.7718 23.5908 35.1283C23.5908 34.7272 23.916 34.3989 24.3135 34.3989C24.7111 34.3989 25.0363 34.7063 25.0363 35.0826C25.0363 36.226 27.116 35.6486 27.4981 34.3989C27.7077 33.714 27.8494 33.5929 27.8792 34.0724C27.9332 34.9232 28.6613 35.0878 29.1581 34.361C29.3359 34.1007 29.8871 33.9835 30.3829 34.1007C31.1192 34.2744 31.2002 34.1725 30.8272 33.5424C30.5762 33.1188 30.5024 32.6529 30.6634 32.5074C30.9838 32.2174 29.9213 30.8846 29.4346 30.966C29.2679 30.9939 28.7528 31.1062 28.2888 31.2155ZM31.3004 32.6572C30.6826 33.0177 30.7 33.0804 31.4208 33.0861C31.8849 33.0896 32.2641 32.8967 32.2641 32.6572C32.2641 32.126 32.2096 32.126 31.3004 32.6572ZM18.6778 35.9103C16.1972 37.3564 15.937 37.7274 17.2062 38.0091C17.6698 38.1118 17.345 38.1166 16.4834 38.0195C14.8625 37.8366 14.3267 38.4554 15.6946 38.9296C16.1881 39.1007 16.3808 39.5157 16.2218 40.0647C16.084 40.5407 16.1678 40.9304 16.4083 40.9304C16.6482 40.9304 16.8448 40.5385 16.8448 40.0595C16.8448 39.1103 17.2 38.9918 18.2475 39.591C19.0368 40.0425 20.6996 39.2649 20.6996 38.4445C20.6996 38.1319 21.0504 38.0117 21.5429 38.1549C22.2228 38.3526 22.2522 38.3143 21.6942 37.9568C21.1299 37.595 21.1155 37.3903 21.6156 36.8456C22.1134 36.3039 22.1076 36.0283 21.5848 35.3847C20.9724 34.6306 20.8288 34.6563 18.6778 35.9103ZM8.89427 45.2847C9.06051 45.5276 8.70009 45.717 8.07946 45.7136C7.18418 45.7079 7.10805 45.6243 7.68965 45.2847C8.58637 44.7613 8.53626 44.7613 8.89427 45.2847ZM290.296 56.6058C290.46 56.8453 290.243 57.0413 289.814 57.0413C289.385 57.0413 289.168 56.8453 289.332 56.6058C289.496 56.3663 289.713 56.1704 289.814 56.1704C289.915 56.1704 290.132 56.3663 290.296 56.6058ZM282.03 61.1966C281.872 61.5662 281.641 61.7753 281.514 61.6612C281.388 61.5471 281.428 61.2445 281.603 60.9893C282.078 60.2944 282.355 60.4293 282.03 61.1966ZM280.584 63.8091C280.427 64.1788 280.195 64.3878 280.069 64.2737C279.943 64.1597 279.982 63.857 280.157 63.6019C280.632 62.9069 280.91 63.0419 280.584 63.8091ZM269.335 65.3144C269.335 65.5539 269.105 65.7499 268.825 65.7499C268.544 65.7499 268.449 65.5539 268.612 65.3144C268.776 65.0749 269.006 64.879 269.123 64.879C269.24 64.879 269.335 65.0749 269.335 65.3144ZM271.022 65.3144C271.185 65.5539 270.981 65.7499 270.568 65.7499C270.155 65.7499 269.817 65.5539 269.817 65.3144C269.817 65.0749 270.021 64.879 270.27 64.879C270.52 64.879 270.858 65.0749 271.022 65.3144ZM238.978 74.023C238.978 74.2625 238.762 74.4584 238.497 74.4584C238.232 74.4584 238.015 74.2625 238.015 74.023C238.015 73.7835 238.232 73.5876 238.497 73.5876C238.762 73.5876 238.978 73.7835 238.978 74.023ZM52.6628 77.985C52.8835 78.1343 52.7211 78.3751 52.3014 78.5206C51.7516 78.7113 51.5382 78.5249 51.5382 77.8557C51.5382 77.3445 51.701 77.1032 51.8995 77.3201C52.0981 77.5365 52.4416 77.8361 52.6628 77.985ZM61.0446 78.6403C60.8846 78.7849 60.4688 78.8005 60.1214 78.6747C59.7369 78.5358 59.8511 78.4326 60.4124 78.4117C60.9203 78.393 61.2046 78.4957 61.0446 78.6403ZM179.229 80.3367C179.229 80.7121 178.794 80.9899 178.206 80.9899C177.352 80.9899 177.282 80.8823 177.783 80.3367C178.113 79.9775 178.574 79.6836 178.806 79.6836C179.039 79.6836 179.229 79.9775 179.229 80.3367ZM126.466 80.5545C126.63 80.7939 126.413 80.9899 125.984 80.9899C125.555 80.9899 125.339 80.7939 125.502 80.5545C125.666 80.315 125.883 80.119 125.984 80.119C126.085 80.119 126.302 80.315 126.466 80.5545ZM107.433 80.719C107.433 80.8092 107.108 81.127 106.71 81.4253C106.118 81.8695 105.987 81.8394 105.987 81.2607C105.987 80.8723 106.313 80.5545 106.71 80.5545C107.108 80.5545 107.433 80.6285 107.433 80.719ZM139.235 80.7465C139.235 80.8523 139.018 81.0596 138.753 81.2076C138.488 81.3556 138.271 81.269 138.271 81.0156C138.271 80.7622 138.488 80.5545 138.753 80.5545C139.018 80.5545 139.235 80.6407 139.235 80.7465ZM117.833 81.8607C118.209 81.8607 118.516 82.2526 118.516 82.7316C118.516 83.2106 118.392 83.6025 118.24 83.6025C117.687 83.6025 116.826 82.4912 116.723 81.643C116.664 81.1641 116.737 81.0173 116.883 81.3165C117.03 81.616 117.457 81.8607 117.833 81.8607ZM97.7959 82.7316C97.7959 83.2929 98.0397 83.6016 98.3982 83.4936C98.7297 83.3939 99.0005 83.0508 99.0005 82.7316C99.0005 82.4124 98.7297 82.0693 98.3982 81.9696C98.0397 81.8616 97.7959 82.1703 97.7959 82.7316ZM128.482 82.8135C128.328 83.1605 128.214 83.0573 128.191 82.55C128.17 82.0911 128.284 81.8342 128.444 81.9787C128.604 82.1233 128.621 82.4991 128.482 82.8135ZM129.839 84.0379C130.003 84.2774 129.799 84.4733 129.386 84.4733C128.973 84.4733 128.634 84.2774 128.634 84.0379C128.634 83.7984 128.838 83.6025 129.088 83.6025C129.337 83.6025 129.675 83.7984 129.839 84.0379Z" fill="white"/>
</svg>
