<svg width="360" height="163" viewBox="0 0 360 163" fill="none" xmlns="http://www.w3.org/2000/svg">
<path fill-rule="evenodd" clip-rule="evenodd" d="M-13 128.139L8.20226 129.629C29.4045 131.118 71.809 134.396 114.214 142.143C156.618 150.188 199.382 163 241.786 163C284.191 163 326.595 150.188 347.798 143.931L369 137.376V90H347.798C326.595 90 284.191 90 241.786 90C199.382 90 156.618 90 114.214 90C71.809 90 29.4045 90 8.20226 90H-13V128.139Z" fill="#FDF3B6"/>
<path fill-rule="evenodd" clip-rule="evenodd" d="M369.001 33.1805L347.799 31.7625C326.596 30.3445 284.192 27.225 241.787 19.8516C199.383 12.1945 156.619 0 114.214 0C71.8094 0 29.4048 12.1945 8.20251 18.15L-12.9998 24.3891V69.4805H8.20251C29.4048 69.4805 71.8094 69.4805 114.214 69.4805C156.619 69.4805 199.383 69.4805 241.787 69.4805C284.192 69.4805 326.596 69.4805 347.799 69.4805H369.001V33.1805Z" fill="#FDF3B6"/>
<g filter="url(#filter0_d_3289_220)">
<path fill-rule="evenodd" clip-rule="evenodd" d="M364.797 133.546L343.916 134.331C323.035 135.116 281.274 136.855 239.517 141.14C228.28 142.339 217.017 143.734 205.743 145.131C175.123 148.925 144.415 152.729 113.891 152.636C73.0552 152.511 32.2079 145.41 10.8858 141.703L9.46113 141.455L-11.4274 137.658L-11.4707 112.31L-12.4246 37.5512L-12.2293 37.5487L-12.3033 34.4383L8.4815 30.109L9.89936 29.8252C31.1199 25.5754 71.7727 17.4339 112.592 16.2672C143.104 15.3951 173.899 18.4149 204.605 21.4262C215.912 22.5349 227.206 23.6425 238.471 24.5542C280.323 27.7724 322.115 28.4455 343.009 28.6972L363.903 28.949L363.993 32.7482L364.059 32.7473L364.134 38.6524L364.42 50.6665L364.287 50.6703L365.295 129.631L364.79 129.637L364.797 133.546Z" fill="#C6ACC7"/>
</g>
<defs>
<filter id="filter0_d_3289_220" x="-13.5592" y="16.1147" width="379.988" height="138.792" filterUnits="userSpaceOnUse" color-interpolation-filters="sRGB">
<feFlood flood-opacity="0" result="BackgroundImageFix"/>
<feColorMatrix in="SourceAlpha" type="matrix" values="0 0 0 0 0 0 0 0 0 0 0 0 0 0 0 0 0 0 127 0" result="hardAlpha"/>
<feOffset dy="1.13437"/>
<feGaussianBlur stdDeviation="0.567187"/>
<feComposite in2="hardAlpha" operator="out"/>
<feColorMatrix type="matrix" values="0 0 0 0 0 0 0 0 0 0 0 0 0 0 0 0 0 0 0.25 0"/>
<feBlend mode="normal" in2="BackgroundImageFix" result="effect1_dropShadow_3289_220"/>
<feBlend mode="normal" in="SourceGraphic" in2="effect1_dropShadow_3289_220" result="shape"/>
</filter>
</defs>
</svg>
