<svg width="236" height="165" viewBox="0 0 236 165" fill="none" xmlns="http://www.w3.org/2000/svg">
<path d="M164.045 2.21257C161.357 1.61668 157.029 1.07749 154.521 1.11648L154.424 1.11451C151.916 1.15351 147.957 1.43341 145.538 1.83491C143.119 2.23641 138.557 3.67628 135.349 4.9634C132.14 6.25053 127.655 8.68385 125.403 10.3512L121.194 13.4214C112.705 8.82965 107.444 6.73848 103.989 5.94658C100.535 5.06455 95.8247 4.33721 93.4149 4.28804C91.0051 4.23887 85.5907 4.93994 81.3292 5.84488C77.0659 6.83997 71.6294 8.62267 69.1939 9.8354C66.7565 11.1383 63.0421 13.5873 60.9811 15.3487C58.8256 17.018 55.3728 20.825 53.2879 23.7582C51.203 26.6914 48.8031 30.8806 48.0824 33.1202C47.2653 35.3578 46.3389 38.2245 46.0203 39.6608C45.4997 41.5438 44.814 42.0708 42.6934 42.0276C41.2475 41.998 37.6681 42.5562 34.7599 43.3084C31.8516 44.0606 27.188 45.7689 24.5579 47.0679C21.8295 48.455 17.2274 51.8778 14.1804 54.7012C11.1334 57.5246 7.77516 61.4237 6.67439 63.385C5.57362 65.3464 3.95595 69.0105 3.03877 71.4264C2.21614 73.9345 1.17314 77.7907 0.834301 80.2184C0.399075 82.6442 0.688994 87.3392 1.5683 91.5051C2.26217 95.3065 3.88869 100.66 5.18483 103.301C6.38641 105.851 9.66998 110.336 12.3119 113.186C15.0521 115.947 19.2234 119.458 21.6037 120.95C25.508 123.374 25.9752 124.105 27.0344 128.906C27.5539 131.802 29.2878 136.616 30.673 139.62C32.1546 142.626 35.4326 147.382 38.0764 150.141C40.8129 153.083 45.3716 156.512 48.9013 158.388C52.24 160.169 57.1173 162.162 59.8016 162.938C62.3913 163.623 67.5854 164.27 71.3446 164.346C75.393 164.429 80.6129 163.814 84.3924 162.899C87.8827 161.979 93.3302 159.655 96.5498 157.827C99.7712 155.909 103.489 153.28 104.868 151.865C107.233 149.388 107.62 149.306 116.006 149.477C123.045 149.531 125.751 149.225 130.513 147.429L136.342 145.293C147.163 149.031 151.007 149.65 156.982 149.863C161.512 149.955 167.791 149.452 170.988 148.706C174.185 147.959 178.747 146.519 181.181 145.397C183.613 144.364 188.207 141.302 191.444 138.663C195.267 135.585 198.625 131.686 201.022 127.677C203.019 124.291 205.237 119.557 206.056 117.229C207.296 113.197 207.787 112.756 213.233 110.523C216.441 109.235 220.634 106.977 222.497 105.482C224.357 104.077 227.315 100.891 229.1 98.4926C230.788 96.0924 232.999 91.719 233.927 88.7623C235.161 85.0002 235.617 81.5829 235.314 77.5189C235.091 74.2681 234.317 69.6535 233.501 67.112C232.683 64.6606 230.453 60.5573 228.48 57.9922C226.604 55.429 222.627 51.8311 219.772 49.9694C216.537 47.8294 211.949 45.8421 207.632 44.7621C200.821 43 200.63 42.9059 200.114 39.8295C199.86 38.111 198.879 34.2136 197.879 31.2174C196.879 28.2213 194.753 23.7594 193.067 21.2903C191.382 18.8213 187.893 14.9628 185.336 12.6563C182.681 10.4379 178.017 7.45722 174.865 5.95014C171.712 4.53319 166.829 2.81043 164.045 2.21257Z" fill="white" stroke="#612D0D" stroke-width="0.5625" stroke-dasharray="3.94 1.69"/>
</svg>
